<svg xmlns="http://www.w3.org/2000/svg" xmlns:xlink="http://www.w3.org/1999/xlink" viewBox="0 0 64 64"><radialGradient id="VsvAedacrhE68jeUoQqOza" cx="32.499" cy="34" r="31.751" gradientTransform="matrix(1 0 0 -1 0 66)" gradientUnits="userSpaceOnUse"><stop offset="0" stop-color="#afeeff"/><stop offset=".193" stop-color="#bbf1ff"/><stop offset=".703" stop-color="#d7f8ff"/><stop offset="1" stop-color="#e1faff"/></radialGradient><path fill="url(#VsvAedacrhE68jeUoQqOza)" d="M61.5,18.01h-5.376c-0.999,0-1.93-0.677-2.095-1.662C53.821,15.099,54.79,14.01,56,14.01h2.41c1.85,0,3.32-1.69,2.94-3.6c-0.28-1.43-1.62-2.4-3.07-2.4L45.5,8C44.67,8,44,7.33,44,6.5S44.67,5,45.5,5h5.9c1.142,0,2.213-0.72,2.511-1.823C54.359,1.518,53.099,0,51.5,0H7.6C6.458,0,5.387,0.72,5.089,1.823C4.641,3.482,5.901,5,7.5,5h3c0.69,0,1.32,0.28,1.77,0.73c0.493,0.493,0.779,1.192,0.73,1.953C12.912,9.021,11.687,10,9.894,10H6.226c-2.305,0-4.331,1.889-4.221,4.192c0.049,1.024,0.488,1.951,1.165,2.638C3.9,17.55,4.9,18,6,18h12.5c2.485,0,4.5,2.015,4.5,4.5l0,0c0,2.485-2.015,4.5-4.5,4.5H5.693c-2.35,0-4.449,1.718-4.672,4.058C0.765,33.742,2.869,36,5.5,36h11.84c0.224,0,0.444,0.034,0.66,0.084V43v3H5.17c-1.624,0-3.081,1.216-3.165,2.839C1.914,50.569,3.29,52,5,52h13v1h0.19c0.47,0.49,0.77,1.13,0.81,1.84c0.09,1.73-1.29,3.16-3,3.16h-3.84c-1.62,0-3.07,1.22-3.16,2.84C8.92,62.58,10.29,64,12,64h45.84c1.62,0,3.07-1.22,3.16-2.84c0.08-1.74-1.29-3.16-3-3.16h-2.794c-1.809,0-3.501-1.112-4.029-2.842c-0.227-0.742-0.23-1.485-0.047-2.158H51v-1h7.83c1.624,0,3.081-1.216,3.165-2.839C62.086,47.431,60.71,46,59,46h-8v-4h7.828c2.089,0,3.955-1.527,4.153-3.607C63.209,36.007,61.339,34,59,34h-8h-3v-1v-6c0-1.1,0.9-4,2-4l11.41,0.01c1.14,0,2.2-0.72,2.5-1.82C64.35,19.53,63.09,18.01,61.5,18.01z"/><linearGradient id="VsvAedacrhE68jeUoQqOzb" x1="32" x2="32" y1="46" y2="60" gradientTransform="matrix(1 0 0 -1 0 66)" gradientUnits="userSpaceOnUse"><stop offset="0" stop-color="#31995f"/><stop offset=".093" stop-color="#329e62"/><stop offset=".666" stop-color="#39ba71"/><stop offset="1" stop-color="#3bc477"/></linearGradient><path fill="url(#VsvAedacrhE68jeUoQqOzb)" d="M32,20c-0.512,0-1.024-0.195-1.414-0.586c-0.781-0.781-0.781-2.047,0-2.828C30.604,16.567,33,14.09,33,11c0-0.617-0.167-1-1-1c-0.551,0-1,0.448-1,1c0,1.104-0.896,2-2,2s-2-0.896-2-2c0-2.757,2.243-5,5-5c2.944,0,5,2.056,5,5c0,4.773-3.439,8.268-3.586,8.414C33.023,19.805,32.512,20,32,20z"/><linearGradient id="VsvAedacrhE68jeUoQqOzc" x1="20.725" x2="20.725" y1="54.697" y2="4.585" gradientTransform="matrix(1 0 0 -1 0 66)" gradientUnits="userSpaceOnUse"><stop offset="0" stop-color="#feaa53"/><stop offset=".612" stop-color="#ffcd49"/><stop offset="1" stop-color="#ffde44"/></linearGradient><ellipse cx="20.725" cy="36.525" fill="url(#VsvAedacrhE68jeUoQqOzc)" rx="15.725" ry="19.475"/><linearGradient id="VsvAedacrhE68jeUoQqOzd" x1="43.275" x2="43.275" y1="54.953" y2="4.844" gradientTransform="matrix(1 0 0 -1 0 66)" gradientUnits="userSpaceOnUse"><stop offset="0" stop-color="#feaa53"/><stop offset=".612" stop-color="#ffcd49"/><stop offset="1" stop-color="#ffde44"/></linearGradient><ellipse cx="43.275" cy="36.525" fill="url(#VsvAedacrhE68jeUoQqOzd)" rx="15.725" ry="19.475"/><linearGradient id="VsvAedacrhE68jeUoQqOze" x1="32" x2="32" y1="71.435" y2="10.355" gradientTransform="matrix(1 0 0 -1 0 66)" gradientUnits="userSpaceOnUse"><stop offset="0" stop-color="#feaa53"/><stop offset=".612" stop-color="#ffcd49"/><stop offset="1" stop-color="#ffde44"/></linearGradient><ellipse cx="32" cy="35.5" fill="url(#VsvAedacrhE68jeUoQqOze)" rx="16" ry="20.5"/><linearGradient id="VsvAedacrhE68jeUoQqOzf" x1="47" x2="47" y1="34.989" y2="8.265" gradientTransform="matrix(1 0 0 -1 0 66)" gradientUnits="userSpaceOnUse"><stop offset="0" stop-color="#ff5840"/><stop offset=".007" stop-color="#ff5840"/><stop offset=".989" stop-color="#fa528c"/><stop offset="1" stop-color="#fa528c"/></linearGradient><circle cx="47" cy="41" r="4" fill="url(#VsvAedacrhE68jeUoQqOzf)"/><linearGradient id="VsvAedacrhE68jeUoQqOzg" x1="17" x2="17" y1="34.989" y2="8.265" gradientTransform="matrix(1 0 0 -1 0 66)" gradientUnits="userSpaceOnUse"><stop offset="0" stop-color="#ff5840"/><stop offset=".007" stop-color="#ff5840"/><stop offset=".989" stop-color="#fa528c"/><stop offset="1" stop-color="#fa528c"/></linearGradient><circle cx="17" cy="41" r="4" fill="url(#VsvAedacrhE68jeUoQqOzg)"/><circle cx="23.5" cy="31.92" r="4.5" fill="#717171"/><path fill="#717171" d="M32.007,47.58c-2.671,0.002-5.684-1.724-5.987-5.523c-0.066-0.826,0.55-1.549,1.375-1.615c0.813-0.058,1.548,0.55,1.615,1.375c0.163,2.041,1.714,2.763,2.994,2.762c1.279-0.001,2.829-0.726,2.989-2.767c0.064-0.826,0.794-1.437,1.612-1.378c0.825,0.064,1.443,0.786,1.378,1.612C37.688,45.845,34.678,47.577,32.007,47.58z"/><circle cx="40.5" cy="31.92" r="4.5" fill="#717171"/><linearGradient id="VsvAedacrhE68jeUoQqOzh" x1="-46.529" x2="-44.007" y1="2312.811" y2="2312.811" gradientTransform="matrix(1.1895 -.0011 .0011 1.1899 90.8 -2721.144)" gradientUnits="userSpaceOnUse"><stop offset="0" stop-color="#ffe79f"/><stop offset=".258" stop-color="#ffe9a7"/><stop offset=".66" stop-color="#ffefbd"/><stop offset="1" stop-color="#fff5d5"/></linearGradient><path fill="url(#VsvAedacrhE68jeUoQqOzh)" d="M41,30.919c0.001,0.828-0.671,1.501-1.499,1.502S38,31.75,38,30.922c-0.001-0.828,0.671-1.501,1.499-1.502S41,30.091,41,30.919z"/><linearGradient id="VsvAedacrhE68jeUoQqOzi" x1="-60.818" x2="-58.296" y1="2312.798" y2="2312.798" gradientTransform="matrix(1.1895 -.0011 .0011 1.1899 90.8 -2721.144)" gradientUnits="userSpaceOnUse"><stop offset="0" stop-color="#ffe79f"/><stop offset=".258" stop-color="#ffe9a7"/><stop offset=".66" stop-color="#ffefbd"/><stop offset="1" stop-color="#fff5d5"/></linearGradient><path fill="url(#VsvAedacrhE68jeUoQqOzi)" d="M24,30.919c0.001,0.828-0.671,1.501-1.499,1.502C21.673,32.422,21,31.75,21,30.922s0.671-1.501,1.499-1.502C23.327,29.419,24,30.091,24,30.919z"/></svg>