<svg xmlns="http://www.w3.org/2000/svg" viewBox="0 0 128 128"><path fill="#fff" d="M44.5 14.1L114 14 79.9 74.5 67.3 52.9 51 50.9 57.2 35.7z"/><path fill="#444b54" d="M116.6,12.5c-0.5-0.9-1.5-1.5-2.6-1.5c0,0,0,0,0,0l-69.5,0.1c-1.1,0-2.1,0.6-2.6,1.5c-0.5,0.9-0.5,2.1,0,3l11.9,20.3l-5.6,13.8c-0.4,0.9-0.3,1.8,0.2,2.6c0.5,0.8,1.3,1.3,2.2,1.5l14.8,1.9L77.3,76c0.5,0.9,1.5,1.5,2.6,1.5c0,0,0,0,0,0c1.1,0,2.1-0.6,2.6-1.5l34.1-60.5C117.1,14.5,117.1,13.4,116.6,12.5z M79.8,68.5l-10-17.1c-0.5-0.8-1.3-1.3-2.2-1.5l-9.4-1.2L90.3,29l0,0c1.2-0.7,1.8-2.1,1.4-3.4c-0.5-1.6-2.1-2.5-3.7-2l-29.4,8.6l-8.8-15l59.1-0.1L79.8,68.5z"/><path fill="#71c2ff" d="M10 77.5c-1 0-2-.5-2.6-1.5-.8-1.4-.3-3.3 1.1-4.1l29.4-17.1c1.4-.8 3.3-.3 4.1 1.1.8 1.4.3 3.3-1.1 4.1L11.5 77.1C11 77.4 10.5 77.5 10 77.5zM25 112c-.5 0-.9-.1-1.3-.3-1.5-.7-2.1-2.5-1.3-4 6.8-13.6 15.8-25.8 26.8-36.2l3.8-3.6c1.2-1.1 3.1-1.1 4.2.1 1.1 1.2 1.1 3.1-.1 4.2l-3.8 3.6c-10.5 10-19.1 21.6-25.6 34.6C27.2 111.4 26.1 112 25 112zM14 45c-.8 0-1.6-.3-2.1-.9-.1-.1-.3-.3-.4-.4-.1-.2-.2-.3-.3-.5-.1-.2-.1-.4-.2-.6 0-.2-.1-.4-.1-.6 0-.8.3-1.6.9-2.1.1-.1.3-.3.5-.4.2-.1.3-.2.5-.3.2-.1.4-.1.6-.2.4-.1.8-.1 1.2 0 .2 0 .4.1.6.2.2.1.4.2.5.3.2.1.3.2.5.4.6.6.9 1.3.9 2.1 0 .2 0 .4-.1.6 0 .2-.1.4-.2.6-.1.2-.2.4-.3.5-.1.2-.2.3-.4.4-.1.1-.3.3-.5.4-.2.1-.3.2-.5.3-.2.1-.4.1-.6.2C14.4 45 14.2 45 14 45zM26.9 41.4c-1.3 0-2.5-.9-2.9-2.2-.4-1.6.5-3.3 2.1-3.7L38.6 32c1.6-.4 3.3.5 3.7 2.1.4 1.6-.5 3.3-2.1 3.7l-12.5 3.5C27.4 41.4 27.2 41.4 26.9 41.4z"/></svg>