<svg xmlns="http://www.w3.org/2000/svg" xmlns:xlink="http://www.w3.org/1999/xlink" viewBox="0 0 50 50" fill="#FFFFFF">
  <path d="M15 7C7.832031 7 2 12.832031 2 20C2 34.761719 18.695313 42.046875 24.375 46.78125L25 47.3125L25.625 46.78125C31.304688 42.046875 48 34.761719 48 20C48 12.832031 42.167969 7 35 7C30.945313 7 27.382813 8.925781 25 11.84375C22.617188 8.925781 19.054688 7 15 7 Z M 15 9C18.835938 9 22.1875 10.96875 24.15625 13.9375L25 15.1875L25.84375 13.9375C27.8125 10.96875 31.164063 9 35 9C41.085938 9 46 13.914063 46 20C46 32.898438 31.59375 39.574219 25 44.78125C18.40625 39.574219 4 32.898438 4 20C4 13.914063 8.914063 9 15 9Z" fill="#FFFFFF" />
</svg>