<svg xmlns="http://www.w3.org/2000/svg" xmlns:xlink="http://www.w3.org/1999/xlink" viewBox="0 0 64 64"><radialGradient id="PkwkT7qzebcFdx4ZkAjIqa" cx="228" cy="32" r="26.875" gradientTransform="matrix(-1 0 0 1 256 0)" gradientUnits="userSpaceOnUse" spreadMethod="reflect"><stop offset="0" stop-color="#afeeff"/><stop offset=".193" stop-color="#bbf1ff"/><stop offset=".703" stop-color="#d7f8ff"/><stop offset="1" stop-color="#e1faff"/></radialGradient><path fill="url(#PkwkT7qzebcFdx4ZkAjIqa)" d="M58.5,61L58.5,61c2.485,0,4.5-2.015,4.5-4.5v0c0-2.485-2.015-4.5-4.5-4.5h0 c-2.485,0-4.5,2.015-4.5,4.5v0C54,58.985,56.015,61,58.5,61z"/><radialGradient id="PkwkT7qzebcFdx4ZkAjIqb" cx="224" cy="31.5" r="30.775" gradientTransform="matrix(-1 0 0 1 256 0)" gradientUnits="userSpaceOnUse" spreadMethod="reflect"><stop offset="0" stop-color="#afeeff"/><stop offset=".193" stop-color="#bbf1ff"/><stop offset=".703" stop-color="#d7f8ff"/><stop offset="1" stop-color="#e1faff"/></radialGradient><path fill="url(#PkwkT7qzebcFdx4ZkAjIqb)" d="M0,24L0,24c0-2.761,2.239-5,5-5h5c2.761,0,5-2.238,5-5v0c0-2.762-2.238-5-5-5H9.434 C7.52,9,6,7.48,6,5.605L6,5.5C6,3.567,7.567,2,9.5,2l43,0c1.926,0,3.49,1.556,3.5,3.483L56,5.5C56.01,7.43,54.447,9,52.517,9H52 c-2.209,0-4,1.791-4,4v0c0,2.209,1.791,4,4,4h7c2.761,0,5,2.239,5,5v0c0,2.761-2.239,5-5,5h-1c-2.209,0-4,1.791-4,4v0 c0,2.209,1.791,4,4,4h0.5c3.038,0,5.5,2.462,5.5,5.5v0c0,3.038-2.462,5.5-5.5,5.5H45c-1.657,0-3,1.343-3,3v0c0,1.657,1.343,3,3,3 h1.5c2.485,0,4.5,2.015,4.5,4.5v0c0,2.485-2.015,4.5-4.5,4.5H31H9c-2.209,0-4-1.791-4-4v0c0-2.209,1.791-4,4-4h1.5 c1.933,0,3.5-1.567,3.5-3.5v0c0-1.933-1.567-3.5-3.5-3.5H4c-2.209,0-4-1.791-4-4l0,0c0-2.209,1.791-4,4-4h1.5 c2.485,0,4.5-2.015,4.5-4.5v0c0-2.485-2.015-4.5-4.5-4.5H5C2.239,29,0,26.761,0,24z"/><linearGradient id="PkwkT7qzebcFdx4ZkAjIqc" x1="32" x2="32" y1="58.968" y2="5.032" gradientUnits="userSpaceOnUse" spreadMethod="reflect"><stop offset="0" stop-color="#ff634d"/><stop offset=".204" stop-color="#fe6464"/><stop offset=".521" stop-color="#fc6581"/><stop offset=".794" stop-color="#fa6694"/><stop offset=".989" stop-color="#fa669a"/><stop offset="1" stop-color="#fa669a"/></linearGradient><path fill="url(#PkwkT7qzebcFdx4ZkAjIqc)" d="M29.172,6.203L6.203,29.172c-1.562,1.562-1.562,4.095,0,5.657l22.968,22.968 c1.562,1.562,4.095,1.562,5.657,0l22.968-22.968c1.562-1.562,1.562-4.095,0-5.657L34.828,6.203 C33.266,4.641,30.734,4.641,29.172,6.203z"/><g><path fill="#fff" d="M32 41A2 2 0 1 0 32 45 2 2 0 1 0 32 41zM32 38L32 38c-1.125 0-2.058-.873-2.133-1.996L29 23h6l-.867 13.004C34.058 37.127 33.125 38 32 38z"/><path fill="#fff" d="M32 20A3 3 0 1 0 32 26A3 3 0 1 0 32 20Z"/></g></svg>