<svg xmlns="http://www.w3.org/2000/svg" viewBox="0 0 64 64"><linearGradient id="hfqB9SjLcUutW7kYJmSYCa" x1="34" x2="34" y1="27" y2="39" gradientUnits="userSpaceOnUse" spreadMethod="reflect"><stop offset="0" stop-color="#6dc7ff"/><stop offset="1" stop-color="#e6abff"/></linearGradient><path fill="url(#hfqB9SjLcUutW7kYJmSYCa)" d="M34,27v7.045c-0.4-0.229-0.857-0.372-1.343-0.372 c-1.486,0-2.657,1.203-2.657,2.663C30,37.826,31.168,39,32.625,39c1.486,0,2.875-1.164,2.875-2.625v-6.5H38V27H34z"/><linearGradient id="hfqB9SjLcUutW7kYJmSYCb" x1="34.5" x2="34.5" y1="7" y2="57" gradientUnits="userSpaceOnUse" spreadMethod="reflect"><stop offset="0" stop-color="#1a6dff"/><stop offset="1" stop-color="#c822ff"/></linearGradient><path fill="url(#hfqB9SjLcUutW7kYJmSYCb)" d="M54.682,28.527l-2.452-1.403C49.888,18.981,42.386,13,33.5,13 c-1.706,0-3.354,0.243-4.932,0.656L18.234,7.774C17.428,7.31,16.654,7,15.5,7C13.406,7,12,8.507,12,10.75v42.499 C12,55.492,13.406,57,15.5,57c1.154,0,1.928-0.31,2.731-0.771L54.685,35.47C55.258,35.142,57,34.143,57,32 C57,29.853,55.255,28.855,54.682,28.527z M51,32.5c0,0.98-0.096,1.955-0.257,2.913l-6.402,3.646C45.388,37.278,46,35.211,46,33 c0-6.617-5.383-12-12-12s-12,5.383-12,12c0,6.588,5.337,11.949,11.914,11.996l-6.715,3.824C20.485,46.225,16,39.73,16,32.5 C16,22.851,23.851,15,33.5,15S51,22.851,51,32.5z M34,43c-5.514,0-10-4.486-10-10s4.486-10,10-10s10,4.486,10,10S39.514,43,34,43z M17.237,54.492C16.578,54.872,16.14,55,15.5,55c-1.24,0-1.5-0.952-1.5-1.751V32.5V10.75C14,9.951,14.26,9,15.5,9 c0.64,0,1.078,0.128,1.74,0.51l8.768,4.992C18.965,17.444,14,24.402,14,32.5c0,7.523,4.361,14.332,11.031,17.554L17.237,54.492z M53.692,33.733l-0.772,0.44C52.967,33.617,53,33.059,53,32.5c0-0.938-0.089-1.853-0.218-2.755l0.907,0.519 C54.845,30.924,55,31.512,55,32C55,32.486,54.845,33.073,53.692,33.733z"/></svg>