<svg xmlns="http://www.w3.org/2000/svg" xmlns:xlink="http://www.w3.org/1999/xlink" viewBox="0 0 50 50" fill="#FFFFFF">
  <path d="M31.28125 5.28125L26.28125 10.28125L25.59375 11L26.28125 11.71875L31.28125 16.71875L32.71875 15.28125L29.4375 12L39 12C40.117188 12 41 12.882813 41 14L41 36C41 37.117188 40.117188 38 39 38L27 38L27 40L39 40C41.199219 40 43 38.199219 43 36L43 14C43 11.800781 41.199219 10 39 10L29.4375 10L32.71875 6.71875 Z M 11 10C8.800781 10 7 11.800781 7 14L7 36C7 38.199219 8.800781 40 11 40L20.5625 40L17.28125 43.28125L18.71875 44.71875L23.71875 39.71875L24.40625 39L23.71875 38.28125L18.71875 33.28125L17.28125 34.71875L20.5625 38L11 38C9.882813 38 9 37.117188 9 36L9 14C9 12.882813 9.882813 12 11 12L23 12L23 10Z" fill="#FFFFFF" />
</svg>