<svg xmlns="http://www.w3.org/2000/svg" xmlns:xlink="http://www.w3.org/1999/xlink" viewBox="0 0 50 50" fill="#FFFFFF">
  <path d="M31.292969 5.292969L25.585938 11L31.292969 16.707031L32.707031 15.292969L29.414063 12L40 12C41.117188 12 42 12.882813 42 14L42 36C42 37.117188 41.117188 38 40 38L27 38L27 40L40 40C42.199219 40 44 38.199219 44 36L44 14C44 11.800781 42.199219 10 40 10L29.414063 10L32.707031 6.707031 Z M 10 10C7.800781 10 6 11.800781 6 14L6 36C6 38.199219 7.800781 40 10 40L20.585938 40L17.292969 43.292969L18.707031 44.707031L24.414063 39L18.707031 33.292969L17.292969 34.707031L20.585938 38L10 38C8.882813 38 8 37.117188 8 36L8 14C8 12.882813 8.882813 12 10 12L23 12L23 10 Z M 25.375 18C25.300781 18.394531 25.140625 18.730469 24.902344 19C24.660156 19.273438 24.371094 19.496094 24.03125 19.667969C23.6875 19.839844 23.308594 19.964844 22.890625 20.039063C22.46875 20.113281 22.035156 20.152344 21.59375 20.152344L21.625 22L24.75 22L24.75 31L27 31L27 18Z" fill="#FFFFFF" />
</svg>