<svg xmlns="http://www.w3.org/2000/svg" xmlns:xlink="http://www.w3.org/1999/xlink" viewBox="0 0 50 50" fill="#FFFFFF">
  <path d="M36.71875 5.28125L35.28125 6.71875L38.5625 10L32.5625 10C30.625 10 28.847656 11.148438 28.03125 12.90625L24.3125 20.84375L25.4375 23.21875L29.84375 13.75C30.332031 12.695313 31.398438 12 32.5625 12L38.5625 12L35.28125 15.28125L36.71875 16.71875L41.71875 11.71875L42.40625 11L41.71875 10.28125 Z M 8 10L8 12L14.4375 12C15.609375 12 16.664063 12.6875 17.15625 13.75L28.03125 37.09375C28.851563 38.855469 30.617188 40 32.5625 40L38.5625 40L35.28125 43.28125L36.71875 44.71875L41.71875 39.71875L42.40625 39L41.71875 38.28125L36.71875 33.28125L35.28125 34.71875L38.5625 38L32.5625 38C31.390625 38 30.335938 37.3125 29.84375 36.25L18.96875 12.90625C18.148438 11.144531 16.382813 10 14.4375 10 Z M 21.5625 26.78125L17.15625 36.25C16.667969 37.304688 15.601563 38 14.4375 38L8 38L8 40L14.4375 40C16.375 40 18.152344 38.851563 18.96875 37.09375L22.6875 29.15625Z" fill="#FFFFFF" />
</svg>