<svg xmlns="http://www.w3.org/2000/svg" viewBox="0 0 16 16">
  <path d="M8 1.804688L4.191406 5L2.5 5C1.675781 5 1 5.675781 1 6.5L1 9.5C1 10.324219 1.675781 11 2.5 11L4.195313 11L8 14.199219 Z M 9 3L9 4C10.9375 4 12.546875 5.367188 12.921875 7.191406C12.972656 7.453125 13 7.722656 13 8C13 10.214844 11.214844 12 9 12L9 13C11.753906 13 14 10.753906 14 8C14 5.246094 11.753906 3 9 3 Z M 7 3.949219L7 12.050781L4.554688 10L2.5 10C2.21875 10 2 9.78125 2 9.5L2 6.5C2 6.21875 2.21875 6 2.5 6L4.554688 6L4.695313 5.882813 Z M 9 5L9 6C10.109375 6 11 6.890625 11 8C11 9.109375 10.109375 10 9 10L9 11C10.652344 11 12 9.652344 12 8C12 6.347656 10.652344 5 9 5 Z M 9 7L9 9C9.550781 9 10 8.550781 10 8C10 7.449219 9.550781 7 9 7Z" fill="#CA370F" />
</svg>